{"title":"Community s01e15  HDTV Bzingaz.flv","uid":7373141,"size":81133604,"categoryP":"video","categoryS":"tv_shows","magnet":"?xt=urn:btih:4a43e36b36969671fed6b7e9dd2c301536055804&amp;dn=Community+s01e15++HDTV+Bzingaz.flv&amp;tr=udp%3A%2F%2Ftracker.openbittorrent.com%3A80&amp;tr=udp%3A%2F%2Fopen.demonii.com%3A1337&amp;tr=udp%3A%2F%2Ftracker.coppersurfer.tk%3A6969&amp;tr=udp%3A%2F%2Fexodus.desync.com%3A6969","seeders":6,"leechers":0,"uploader":"bzingaz","files":-1,"time":1340290913,"description":"Community Season 1 episode 15 flv format with eng subs..enjoy and remember to seed back..\n\nDetails of file are:\n\n\nScreenshots: (bayimg not working right now)\n &lt;a href=&quot;\nhttp://img30.pixroute.com/i/00260/opjlgm6agqj4_t.jpg&quot; rel=&quot;nofollow&quot; target=&quot;_NEW&quot;&gt;\nhttp://img30.pixroute.com/i/00260/opjlgm6agqj4_t.jpg&lt;/a&gt;\n &lt;a href=&quot;\nhttp://img30.pixroute.com/i/00260/4h7drw8trkzr_t.jpg&quot; rel=&quot;nofollow&quot; target=&quot;_NEW&quot;&gt;\nhttp://img30.pixroute.com/i/00260/4h7drw8trkzr_t.jpg&lt;/a&gt;\n\n\nCommunity s01e15  HDTV Bzingaz.flv\n\nFormat                           : Flash Video\nFile size                        : 77.4 MiB\nDuration                         : 21mn 21s\nOverall bit rate                 : 506 Kbps\n\n\nVideo\nFormat                           : AVC\nFormat/Info                      : Advanced Video Codec\nFormat profile                   : &lt;a class=&quot;__cf_email__&quot; href=&quot;/cdn-cgi/l/email-protection&quot; data-cfemail=&quot;1e567779765e522d302e&quot;&gt;[email&amp;#160;protected]&lt;/a&gt;&lt;script cf-hash='f9e31' type=&quot;text/javascript&quot;&gt;\n/* &lt;![CDATA[ */!function(){try{var t=&quot;currentScript&quot;in document?document.currentScript:function(){for(var t=document.getElementsByTagName(&quot;script&quot;),e=t.length;e--;)if(t[e].getAttribute(&quot;cf-hash&quot;))return t[e]}();if(t&amp;&amp;t.previousSibling){var e,r,n,i,c=t.previousSibling,a=c.getAttribute(&quot;data-cfemail&quot;);if(a){for(e=&quot;&quot;,r=parseInt(a.substr(0,2),16),n=2;a.length-n;n+=2)i=parseInt(a.substr(n,2),16)^r,e+=String.fromCharCode(i);e=document.createTextNode(e),c.parentNode.replaceChild(e,c)}}}catch(u){}}();/* ]]&gt; */&lt;/script&gt;\nFormat settings, CABAC           : Yes\nFormat settings, ReFrames        : 4 frames\nCodec ID                         : 7\nDuration                         : 21mn 21s\nBit rate                         : 400 Kbps\nWidth                            : 624 pixels\nHeight                           : 352 pixels\nDisplay aspect ratio             : 16:9\nFrame rate mode                  : Constant\nFrame rate                       : 23.976 fps\nColor space                      : YUV\nChroma subsampling               : 4:2:0\nBit depth                        : 8 bits\nScan type                        : Progressive\nBits/(Pixel*Frame)               : 0.076\nStream size                      : 61.7 MiB (80%)\n\nAudio\nFormat                           : AAC\nFormat/Info                      : Advanced Audio Codec\nFormat profile                   : LC\nCodec ID                         : 10\nDuration                         : 21mn 21s\nBit rate                         : 94.3 Kbps\nChannel(s)                       : 2 channels\nChannel positions                : Front: L R\nSampling rate                    : 44.1 KHz\nCompression mode                 : Lossy\nStream size                      : 15.3 MiB (20%)\n","torrent":{"xt":"urn:btih:4a43e36b36969671fed6b7e9dd2c301536055804","amp;dn":"Community+s01e15++HDTV+Bzingaz.flv","amp;tr":["udp%3A%2F%2Ftracker.openbittorrent.com%3A80","udp%3A%2F%2Fopen.demonii.com%3A1337","udp%3A%2F%2Ftracker.coppersurfer.tk%3A6969","udp%3A%2F%2Fexodus.desync.com%3A6969"],"infoHash":"4a43e36b36969671fed6b7e9dd2c301536055804","infoHashBuffer":{"type":"Buffer","data":[74,67,227,107,54,150,150,113,254,214,183,233,221,44,48,21,54,5,88,4]},"announce":[],"urlList":[]}}